<svg width="56" height="56" viewBox="0 0 56 56" fill="none" xmlns="http://www.w3.org/2000/svg">
<rect x="3" y="3" width="50" height="50" rx="10" fill="url(#paint0_linear_403_154)"/>
<rect x="1.5" y="1.5" width="53" height="53" rx="11.5" stroke="#EAE9FC" stroke-opacity="0.97" stroke-width="3"/>
<path d="M28 13C20 13 13 19.4333 13 28C13 31.5333 14.2333 34.7833 16.2833 37.35L13 40.65L15.35 43L18.6333 39.7167C21.2933 41.8409 24.5959 42.9986 28 43C31.8333 43 35.6833 41.5333 38.6 38.6C39.997 37.2112 41.105 35.5594 41.8602 33.7401C42.6154 31.9208 43.0028 29.9698 43 28V13H28ZM34.3833 28.4333L25.7833 36.15C25.5167 36.4 25.1 36.3833 24.85 36.1333C24.7361 36.0213 24.6666 35.8718 24.6544 35.7125C24.6421 35.5532 24.6879 35.3948 24.7833 35.2667L28.85 29.7167L22.1 29.05C21.9351 29.0345 21.7782 28.9716 21.6483 28.8687C21.5184 28.7659 21.4212 28.6277 21.3683 28.4707C21.3153 28.3137 21.3091 28.1448 21.3502 27.9844C21.3913 27.8239 21.4781 27.6788 21.6 27.5667L30.2 19.85C30.4667 19.6 30.8833 19.6167 31.1333 19.8667C31.3667 20.1 31.4 20.4667 31.2 20.7333L27.1333 26.2833L33.8833 26.95C34.6333 27.0167 34.9333 27.9333 34.3833 28.4333Z" fill="white"/>
<defs>
<linearGradient id="paint0_linear_403_154" x1="28" y1="3" x2="28" y2="53" gradientUnits="userSpaceOnUse">
<stop stop-color="#B48AFF"/>
<stop offset="1" stop-color="#9355F1"/>
</linearGradient>
</defs>
</svg>
