<svg width="56" height="56" viewBox="0 0 56 56" fill="none" xmlns="http://www.w3.org/2000/svg">
<rect x="3" y="3" width="50" height="50" rx="10" fill="url(#paint0_linear_403_52)"/>
<rect x="1.5" y="1.5" width="53" height="53" rx="11.5" stroke="#EAE9FC" stroke-opacity="0.97" stroke-width="3"/>
<path d="M37.75 37H18.25C17.8375 37 17.5 37.3375 17.5 37.75V39.25C17.5 39.6625 17.8375 40 18.25 40H37.75C38.1625 40 38.5 39.6625 38.5 39.25V37.75C38.5 37.3375 38.1625 37 37.75 37ZM40.75 22C39.5078 22 38.5 23.0078 38.5 24.25C38.5 24.5828 38.575 24.8922 38.7063 25.1781L35.3125 27.2125C34.5906 27.6438 33.6578 27.4 33.2406 26.6688L29.4203 19.9844C29.9219 19.5719 30.25 18.9531 30.25 18.25C30.25 17.0078 29.2422 16 28 16C26.7578 16 25.75 17.0078 25.75 18.25C25.75 18.9531 26.0781 19.5719 26.5797 19.9844L22.7594 26.6688C22.3422 27.4 21.4047 27.6438 20.6875 27.2125L17.2984 25.1781C17.425 24.8969 17.5047 24.5828 17.5047 24.25C17.5047 23.0078 16.4969 22 15.2547 22C14.0125 22 13 23.0078 13 24.25C13 25.4922 14.0078 26.5 15.25 26.5C15.3719 26.5 15.4938 26.4812 15.6109 26.4625L19 35.5H37L40.3891 26.4625C40.5062 26.4812 40.6281 26.5 40.75 26.5C41.9922 26.5 43 25.4922 43 24.25C43 23.0078 41.9922 22 40.75 22Z" fill="url(#paint1_linear_403_52)"/>
<defs>
<linearGradient id="paint0_linear_403_52" x1="28" y1="3" x2="28" y2="53" gradientUnits="userSpaceOnUse">
<stop stop-color="#B48AFF"/>
<stop offset="1" stop-color="#9355F1"/>
</linearGradient>
<linearGradient id="paint1_linear_403_52" x1="28" y1="16" x2="28" y2="40" gradientUnits="userSpaceOnUse">
<stop stop-color="#FFD571"/>
<stop offset="1" stop-color="#FFB910"/>
</linearGradient>
</defs>
</svg>
