<svg width="56" height="56" viewBox="0 0 56 56" fill="none" xmlns="http://www.w3.org/2000/svg">
<rect x="3" y="3" width="50" height="50" rx="10" fill="url(#paint0_linear_403_89)"/>
<rect x="1.5" y="1.5" width="53" height="53" rx="11.5" stroke="#EAE9FC" stroke-opacity="0.97" stroke-width="3"/>
<path d="M21 17C20.4 17 20 17.6 20 18V23H18V18C18 17.4 17.6 17 17 17C16.4 17 16 17.6 16 18V23H14V18C14 17.4 13.6 17 13 17C12.4 17 12 17.6 12 18V24.6C12 26.4 13.4 27.8 15 28V42C15 43.2 15.8 44 17 44C18.2 44 19 43.2 19 42V28C20.6 27.8 22 26.4 22 24.6V18C22 17.6 21.6 17 21 17ZM25 18V30H27V42C27 43.2 27.8 44 29 44C30.2 44 31 43.2 31 42V12C27.6 12 25 14.6 25 18ZM39 16C36.2 16 34 19 34 22.6C33.8 25 35 27.2 37 28.6V42C37 43.2 37.8 44 39 44C40.2 44 41 43.2 41 42V28.6C43 27.2 44.2 25 44 22.6C44 19 41.8 16 39 16Z" fill="url(#paint1_linear_403_89)"/>
<defs>
<linearGradient id="paint0_linear_403_89" x1="28" y1="3" x2="28" y2="53" gradientUnits="userSpaceOnUse">
<stop stop-color="#B48AFF"/>
<stop offset="1" stop-color="#9355F1"/>
</linearGradient>
<linearGradient id="paint1_linear_403_89" x1="28.0108" y1="12" x2="28.0108" y2="44" gradientUnits="userSpaceOnUse">
<stop stop-color="#FFD571"/>
<stop offset="1" stop-color="#FFB910"/>
</linearGradient>
</defs>
</svg>
