<svg width="56" height="56" viewBox="0 0 56 56" fill="none" xmlns="http://www.w3.org/2000/svg">
<rect x="3" y="3" width="50" height="50" rx="10" fill="url(#paint0_linear_403_62)"/>
<rect x="1.5" y="1.5" width="53" height="53" rx="11.5" stroke="#EAE9FC" stroke-opacity="0.97" stroke-width="3"/>
<path d="M27.8333 11C24.8833 11 22.2833 12.95 21.45 15.7833C20.5667 15.3833 19.6333 15.1667 18.6667 15.1667C16.8986 15.1667 15.2029 15.869 13.9526 17.1193C12.7024 18.3695 12 20.0652 12 21.8333C12.0039 23.3097 12.4967 24.7433 13.4012 25.9101C14.3057 27.077 15.5712 27.9115 17 28.2833V40.1667H38.6667V28.2833C41.6 27.5167 43.6667 24.8667 43.6667 21.8333C43.6667 20.0652 42.9643 18.3695 41.714 17.1193C40.4638 15.869 38.7681 15.1667 37 15.1667C36.0333 15.1667 35.1 15.3833 34.2167 15.7833C33.3833 12.95 30.7833 11 27.8333 11ZM27 26H28.6667V37.6667H27V26ZM22 29.3333H23.6667V37.6667H22V29.3333ZM32 29.3333H33.6667V37.6667H32V29.3333ZM17 41.8333V43.5C17 43.942 17.1756 44.366 17.4882 44.6785C17.8007 44.9911 18.2246 45.1667 18.6667 45.1667H37C37.442 45.1667 37.866 44.9911 38.1785 44.6785C38.4911 44.366 38.6667 43.942 38.6667 43.5V41.8333H17Z" fill="url(#paint1_linear_403_62)"/>
<defs>
<linearGradient id="paint0_linear_403_62" x1="28" y1="3" x2="28" y2="53" gradientUnits="userSpaceOnUse">
<stop stop-color="#B48AFF"/>
<stop offset="1" stop-color="#9355F1"/>
</linearGradient>
<linearGradient id="paint1_linear_403_62" x1="27.8333" y1="11" x2="27.8333" y2="45.1667" gradientUnits="userSpaceOnUse">
<stop stop-color="#FFD571"/>
<stop offset="1" stop-color="#FFB910"/>
</linearGradient>
</defs>
</svg>
