<svg width="56" height="56" viewBox="0 0 56 56" fill="none" xmlns="http://www.w3.org/2000/svg">
<rect x="3" y="3" width="50" height="50" rx="25" fill="url(#paint0_linear_487_5)"/>
<rect x="1.5" y="1.5" width="53" height="53" rx="26.5" stroke="#EAE9FC" stroke-opacity="0.97" stroke-width="3"/>
<path d="M41 28.5C41 21.6 35.4 16 28.5 16C21.6 16 16 21.6 16 28.5C16 34.55 20.3 39.5875 26 40.75V32.25H23.5V28.5H26V25.375C26 22.9625 27.9625 21 30.375 21H33.5V24.75H31C30.3125 24.75 29.75 25.3125 29.75 26V28.5H33.5V32.25H29.75V40.9375C36.0625 40.3125 41 34.9875 41 28.5Z" fill="url(#paint1_linear_487_5)"/>
<defs>
<linearGradient id="paint0_linear_487_5" x1="28" y1="3" x2="28" y2="53" gradientUnits="userSpaceOnUse">
<stop stop-color="#B48AFF"/>
<stop offset="1" stop-color="#9355F1"/>
</linearGradient>
<linearGradient id="paint1_linear_487_5" x1="28.5" y1="16" x2="28.5" y2="40.9375" gradientUnits="userSpaceOnUse">
<stop stop-color="#FFD571"/>
<stop offset="1" stop-color="#FFB910"/>
</linearGradient>
</defs>
</svg>
