<svg width="56" height="56" viewBox="0 0 56 56" fill="none" xmlns="http://www.w3.org/2000/svg">
<rect x="3" y="3" width="50" height="50" rx="10" fill="url(#paint0_linear_487_5)"/>
<rect x="1.5" y="1.5" width="53" height="53" rx="11.5" stroke="#EAE9FC" stroke-opacity="0.97" stroke-width="3"/>
<path d="M27.6953 38.1241L35.3072 42.728C36.7012 43.5717 38.407 42.3244 38.0402 40.747L36.0226 32.0895L42.7541 26.2568C43.983 25.1929 43.3227 23.1753 41.7086 23.0469L32.8494 22.2949L29.3827 14.1143C28.7591 12.6286 26.6314 12.6286 26.0078 14.1143L22.5411 22.2765L13.6819 23.0285C12.0678 23.1569 11.4075 25.1746 12.6364 26.2384L19.3679 32.0712L17.3503 40.7287C16.9835 42.3061 18.6893 43.5534 20.0833 42.7096L27.6953 38.1241Z" fill="url(#paint1_linear_487_5)"/>
<defs>
<linearGradient id="paint0_linear_487_5" x1="28" y1="3" x2="28" y2="53" gradientUnits="userSpaceOnUse">
<stop stop-color="#B48AFF"/>
<stop offset="1" stop-color="#9355F1"/>
</linearGradient>
<linearGradient id="paint1_linear_487_5" x1="27.6953" y1="13" x2="27.6953" y2="43" gradientUnits="userSpaceOnUse">
<stop stop-color="#FFD571"/>
<stop offset="1" stop-color="#FFB910"/>
</linearGradient>
</defs>
</svg>
