<svg width="56" height="56" viewBox="0 0 56 56" fill="none" xmlns="http://www.w3.org/2000/svg">
<rect x="3" y="3" width="50" height="50" rx="10" fill="url(#paint0_linear_487_5)"/>
<rect x="1.5" y="1.5" width="53" height="53" rx="11.5" stroke="#EAE9FC" stroke-opacity="0.97" stroke-width="3"/>
<path d="M30.2222 35.2222C30.2222 35.6617 30.0919 36.0914 29.8477 36.4568C29.6035 36.8223 29.2565 37.1071 28.8504 37.2753C28.4444 37.4435 27.9975 37.4875 27.5665 37.4017C27.1354 37.316 26.7394 37.1043 26.4287 36.7936C26.1179 36.4828 25.9062 36.0868 25.8205 35.6558C25.7347 35.2247 25.7787 34.7779 25.9469 34.3718C26.1151 33.9658 26.4 33.6187 26.7654 33.3745C27.1308 33.1303 27.5605 33 28 33C28.5894 33 29.1546 33.2341 29.5714 33.6509C29.9881 34.0676 30.2222 34.6328 30.2222 35.2222ZM43 28C43 30.9667 42.1203 33.8668 40.472 36.3335C38.8238 38.8003 36.4811 40.7229 33.7403 41.8582C30.9994 42.9935 27.9834 43.2906 25.0736 42.7118C22.1639 42.133 19.4912 40.7044 17.3934 38.6066C15.2956 36.5088 13.867 33.8361 13.2882 30.9264C12.7094 28.0166 13.0065 25.0006 14.1418 22.2597C15.2771 19.5189 17.1997 17.1762 19.6665 15.528C22.1332 13.8797 25.0333 13 28 13C31.9769 13.0044 35.7896 14.5862 38.6017 17.3983C41.4138 20.2104 42.9956 24.0231 43 28ZM39.6667 28C39.6667 25.6925 38.9824 23.4369 37.7005 21.5183C36.4185 19.5998 34.5964 18.1044 32.4646 17.2214C30.3328 16.3384 27.9871 16.1073 25.724 16.5575C23.4608 17.0077 21.382 18.1188 19.7504 19.7504C18.1188 21.382 17.0077 23.4608 16.5575 25.7239C16.1074 27.9871 16.3384 30.3328 17.2214 32.4646C18.1044 34.5964 19.5998 36.4185 21.5184 37.7005C23.4369 38.9824 25.6926 39.6667 28 39.6667C31.0932 39.6634 34.0587 38.4331 36.2459 36.2459C38.4331 34.0587 39.6634 31.0932 39.6667 28ZM28 19.1111C24.6306 19.1111 21.8889 21.6028 21.8889 24.6667V25.2222C21.8889 25.6642 22.0645 26.0882 22.377 26.4007C22.6896 26.7133 23.1135 26.8889 23.5556 26.8889C23.9976 26.8889 24.4215 26.7133 24.7341 26.4007C25.0466 26.0882 25.2222 25.6642 25.2222 25.2222V24.6667C25.2222 23.4417 26.4722 22.4444 28 22.4444C29.5278 22.4444 30.7778 23.4417 30.7778 24.6667C30.7778 25.8917 29.5278 26.8889 28 26.8889C27.558 26.8889 27.1341 27.0645 26.8215 27.377C26.5089 27.6896 26.3333 28.1135 26.3333 28.5556V29.6667C26.3323 30.0784 26.4838 30.476 26.7586 30.7827C27.0333 31.0894 27.4118 31.2836 27.8212 31.3277C28.2306 31.3719 28.6419 31.263 28.9757 31.0219C29.3095 30.7808 29.5423 30.4247 29.6292 30.0222C32.2097 29.3722 34.1111 27.2181 34.1111 24.6667C34.1111 21.6028 31.3694 19.1111 28 19.1111Z" fill="url(#paint1_linear_487_5)"/>
<defs>
<linearGradient id="paint0_linear_487_5" x1="28" y1="3" x2="28" y2="53" gradientUnits="userSpaceOnUse">
<stop stop-color="#B48AFF"/>
<stop offset="1" stop-color="#9355F1"/>
</linearGradient>
<linearGradient id="paint1_linear_487_5" x1="28" y1="13" x2="28" y2="43" gradientUnits="userSpaceOnUse">
<stop stop-color="#FFD571"/>
<stop offset="1" stop-color="#FFB910"/>
</linearGradient>
</defs>
</svg>
