<svg width="193" height="35" viewBox="0 0 193 35" fill="none" xmlns="http://www.w3.org/2000/svg">
<path d="M16.4568 0.350755C16.2032 0.12483 15.8754 0 15.5357 0C15.196 0 14.8682 0.12483 14.6145 0.350755C13.2953 1.51957 12.2433 2.95881 11.53 4.57057C10.8168 6.18233 10.459 7.9288 10.4811 9.69119C10.483 9.87569 10.5324 10.0566 10.6245 10.2164C10.7167 10.3763 10.8485 10.5097 11.0072 10.6038C12.3985 11.4268 13.6562 12.4571 14.7369 13.6593C14.8376 13.7714 14.9608 13.861 15.0984 13.9224C15.236 13.9838 15.385 14.0155 15.5357 14.0155C15.6864 14.0155 15.8354 13.9838 15.973 13.9224C16.1106 13.861 16.2338 13.7714 16.3344 13.6593C17.4149 12.4589 18.6718 11.43 20.062 10.6081C20.2211 10.5142 20.3534 10.3809 20.4459 10.2211C20.5384 10.0612 20.5881 9.88019 20.5903 9.69549C20.6127 7.93274 20.2551 6.18585 19.5418 4.5737C18.8285 2.96154 17.7763 1.52196 16.4568 0.352903V0.350755ZM0.541597 21.8144C0.524808 21.6275 0.545142 21.4391 0.601431 21.2601C0.657719 21.0811 0.748851 20.9149 0.869583 20.7712C0.990315 20.6276 1.13827 20.5092 1.30492 20.4229C1.47158 20.3366 1.65365 20.2841 1.84067 20.2684C4.69953 20.0307 7.56071 20.6987 10.0187 22.1779C12.4767 23.657 14.4069 25.8722 15.5357 28.5095C16.6645 25.8722 18.5946 23.657 21.0526 22.1779C23.5107 20.6987 26.3718 20.0307 29.2307 20.2684C30.0144 20.3328 30.6028 21.0243 30.5298 21.8144C30.2211 25.2125 28.6532 28.3723 26.134 30.6734C23.6148 32.9746 20.3262 34.2507 16.9142 34.2512H15.9136C15.7859 34.251 15.6588 34.2336 15.5357 34.1996C15.4126 34.2337 15.2855 34.251 15.1578 34.2512H14.1572C10.7452 34.2507 7.4566 32.9746 4.93736 30.6734C2.41812 28.3723 0.850221 25.2125 0.541597 21.8144ZM15.5357 18.847C14.4069 16.2097 12.4767 13.9945 10.0187 12.5153C7.56071 11.0362 4.69953 10.3682 1.84067 10.6059C1.65365 10.6216 1.47158 10.6741 1.30492 10.7604C1.13827 10.8466 0.990315 10.965 0.869583 11.1087C0.748851 11.2524 0.657719 11.4185 0.601431 11.5976C0.545142 11.7766 0.524808 11.965 0.541597 12.1519C0.710868 14.0358 1.27027 15.8639 2.18423 17.52C2.27625 17.6864 2.41083 17.8254 2.57419 17.9227C2.73754 18.02 2.92383 18.0722 3.11398 18.074C5.28573 18.0923 7.43037 18.5582 9.41394 19.4427C11.3975 20.3272 13.1774 21.6111 14.6424 23.2144C14.7546 23.3369 14.8937 23.4316 15.0487 23.4912C15.2037 23.5509 15.3704 23.5737 15.5357 23.558C15.701 23.5737 15.8677 23.5509 16.0227 23.4912C16.1777 23.4316 16.3168 23.3369 16.4289 23.2144C17.8938 21.6115 19.6734 20.3278 21.6565 19.4433C23.6397 18.5589 25.7839 18.0927 27.9552 18.074C28.146 18.0724 28.3328 18.0201 28.4966 17.9223C28.6604 17.8246 28.7952 17.685 28.8871 17.5178C29.7782 15.9074 30.3537 14.0909 30.5298 12.1519C30.5466 11.965 30.5262 11.7766 30.4699 11.5976C30.4136 11.4185 30.3225 11.2524 30.2018 11.1087C30.081 10.965 29.9331 10.8466 29.7664 10.7604C29.5998 10.6741 29.4177 10.6216 29.2307 10.6059C26.3718 10.3682 23.5107 11.0362 21.0526 12.5153C18.5946 13.9945 16.6645 16.2097 15.5357 18.847Z" fill="url(#paint0_linear_403_126)"/>
<path d="M57.1723 9.72727V33H51.8995L43.4904 20.7727H43.3541V33H37.0359V9.72727H42.3995L50.6723 21.9091H50.8541V9.72727H57.1723ZM71.57 25.3636V15.5455H77.8427V33H71.8882V29.6818H71.7063C71.3276 30.7955 70.6647 31.6667 69.7177 32.2955C68.7707 32.9167 67.6457 33.2273 66.3427 33.2273C65.123 33.2273 64.0548 32.947 63.1382 32.3864C62.2291 31.8258 61.5207 31.053 61.0132 30.0682C60.5132 29.0833 60.2594 27.9545 60.2518 26.6818V15.5455H66.5245V25.3636C66.5321 26.2273 66.7518 26.9053 67.1836 27.3977C67.623 27.8902 68.2366 28.1364 69.0245 28.1364C69.5473 28.1364 69.998 28.0265 70.3768 27.8068C70.7632 27.5795 71.0586 27.2614 71.2632 26.8523C71.4753 26.4356 71.5776 25.9394 71.57 25.3636ZM91.4421 15.5455V20.0909H79.9421V15.5455H91.4421ZM82.1694 11.3636H88.4421V27.3864C88.4421 27.6288 88.4838 27.8333 88.5671 28C88.6505 28.1591 88.7793 28.2803 88.9535 28.3636C89.1277 28.4394 89.3512 28.4773 89.624 28.4773C89.8134 28.4773 90.033 28.4545 90.283 28.4091C90.5406 28.3636 90.73 28.3258 90.8512 28.2955L91.7603 32.7045C91.48 32.7879 91.0785 32.8902 90.5558 33.0114C90.0406 33.1326 89.427 33.2121 88.7149 33.25C87.2755 33.3258 86.0671 33.178 85.0899 32.8068C84.1126 32.428 83.3777 31.8333 82.8853 31.0227C82.3929 30.2121 82.1543 29.197 82.1694 27.9773V11.3636ZM94.0018 33V15.5455H100.093V18.8636H100.275C100.593 17.6364 101.096 16.7386 101.786 16.1705C102.483 15.6023 103.297 15.3182 104.229 15.3182C104.502 15.3182 104.771 15.3409 105.036 15.3864C105.309 15.4242 105.57 15.4811 105.82 15.5568V20.9091C105.509 20.803 105.127 20.7235 104.672 20.6705C104.218 20.6174 103.828 20.5909 103.502 20.5909C102.888 20.5909 102.335 20.7311 101.843 21.0114C101.358 21.2841 100.975 21.6705 100.695 22.1705C100.415 22.6629 100.275 23.2424 100.275 23.9091V33H94.0018ZM107.877 33V15.5455H114.15V33H107.877ZM111.013 13.7273C110.165 13.7273 109.437 13.447 108.831 12.8864C108.225 12.3258 107.922 11.6515 107.922 10.8636C107.922 10.0758 108.225 9.40151 108.831 8.84091C109.437 8.2803 110.165 8 111.013 8C111.869 8 112.596 8.2803 113.195 8.84091C113.801 9.40151 114.104 10.0758 114.104 10.8636C114.104 11.6515 113.801 12.3258 113.195 12.8864C112.596 13.447 111.869 13.7273 111.013 13.7273Z" fill="white"/>
<path d="M138.982 18.4545H132.573C132.527 17.9242 132.406 17.4432 132.209 17.0114C132.02 16.5795 131.755 16.2083 131.414 15.8977C131.08 15.5795 130.675 15.3371 130.198 15.1705C129.721 14.9962 129.179 14.9091 128.573 14.9091C127.512 14.9091 126.614 15.1667 125.88 15.6818C125.152 16.197 124.599 16.9356 124.221 17.8977C123.849 18.8598 123.664 20.0152 123.664 21.3636C123.664 22.7879 123.853 23.9811 124.232 24.9432C124.618 25.8977 125.175 26.6174 125.902 27.1023C126.63 27.5795 127.505 27.8182 128.527 27.8182C129.111 27.8182 129.633 27.7462 130.096 27.6023C130.558 27.4508 130.959 27.2348 131.3 26.9545C131.641 26.6742 131.918 26.3371 132.13 25.9432C132.349 25.5417 132.497 25.0909 132.573 24.5909L138.982 24.6364C138.906 25.6212 138.63 26.625 138.152 27.6477C137.675 28.6629 136.997 29.6023 136.118 30.4659C135.247 31.322 134.168 32.0114 132.88 32.5341C131.592 33.0568 130.096 33.3182 128.391 33.3182C126.255 33.3182 124.338 32.8598 122.641 31.9432C120.952 31.0265 119.614 29.678 118.63 27.8977C117.652 26.1174 117.164 23.9394 117.164 21.3636C117.164 18.7727 117.664 16.5909 118.664 14.8182C119.664 13.0379 121.012 11.6932 122.709 10.7841C124.406 9.86742 126.3 9.40909 128.391 9.40909C129.861 9.40909 131.213 9.60985 132.448 10.0114C133.683 10.4129 134.766 11 135.698 11.7727C136.63 12.5379 137.38 13.4811 137.948 14.6023C138.516 15.7235 138.861 17.0076 138.982 18.4545ZM146.803 33.2727C145.689 33.2727 144.704 33.0909 143.848 32.7273C143 32.3561 142.333 31.7955 141.848 31.0455C141.364 30.2955 141.121 29.3409 141.121 28.1818C141.121 27.2273 141.284 26.4129 141.61 25.7386C141.936 25.0568 142.39 24.5 142.973 24.0682C143.557 23.6364 144.235 23.3068 145.007 23.0795C145.788 22.8523 146.629 22.7045 147.53 22.6364C148.507 22.5606 149.292 22.4697 149.882 22.3636C150.481 22.25 150.913 22.0947 151.178 21.8977C151.443 21.6932 151.576 21.4242 151.576 21.0909V21.0455C151.576 20.5909 151.401 20.2424 151.053 20C150.704 19.7576 150.257 19.6364 149.712 19.6364C149.114 19.6364 148.625 19.7689 148.246 20.0341C147.875 20.2917 147.651 20.6894 147.576 21.2273H141.803C141.879 20.1667 142.216 19.1894 142.814 18.2955C143.42 17.3939 144.303 16.6742 145.462 16.1364C146.621 15.5909 148.068 15.3182 149.803 15.3182C151.053 15.3182 152.174 15.4659 153.167 15.7614C154.159 16.0492 155.004 16.4545 155.701 16.9773C156.398 17.4924 156.928 18.0985 157.292 18.7955C157.663 19.4848 157.848 20.2348 157.848 21.0455V33H151.985V30.5455H151.848C151.5 31.197 151.076 31.7235 150.576 32.125C150.083 32.5265 149.519 32.8182 148.882 33C148.254 33.1818 147.561 33.2727 146.803 33.2727ZM148.848 29.3182C149.326 29.3182 149.773 29.2197 150.189 29.0227C150.614 28.8258 150.958 28.5417 151.223 28.1705C151.489 27.7992 151.621 27.3485 151.621 26.8182V25.3636C151.454 25.4318 151.276 25.4962 151.087 25.5568C150.905 25.6174 150.708 25.6742 150.496 25.7273C150.292 25.7803 150.072 25.8295 149.837 25.875C149.61 25.9205 149.371 25.9621 149.121 26C148.636 26.0758 148.239 26.2008 147.928 26.375C147.625 26.5417 147.398 26.75 147.246 27C147.102 27.2424 147.03 27.5152 147.03 27.8182C147.03 28.303 147.201 28.6742 147.542 28.9318C147.882 29.1894 148.318 29.3182 148.848 29.3182ZM160.846 33V15.5455H166.936V18.8636H167.118C167.436 17.6364 167.94 16.7386 168.63 16.1705C169.327 15.6023 170.141 15.3182 171.073 15.3182C171.346 15.3182 171.614 15.3409 171.88 15.3864C172.152 15.4242 172.414 15.4811 172.664 15.5568V20.9091C172.353 20.803 171.971 20.7235 171.516 20.6705C171.061 20.6174 170.671 20.5909 170.346 20.5909C169.732 20.5909 169.179 20.7311 168.686 21.0114C168.202 21.2841 167.819 21.6705 167.539 22.1705C167.258 22.6629 167.118 23.2424 167.118 23.9091V33H160.846ZM182.084 33.3182C180.221 33.3182 178.614 32.9621 177.266 32.25C175.925 31.5303 174.891 30.5 174.164 29.1591C173.444 27.8106 173.084 26.197 173.084 24.3182C173.084 22.5152 173.448 20.9394 174.175 19.5909C174.902 18.2424 175.929 17.1932 177.255 16.4432C178.58 15.6932 180.145 15.3182 181.948 15.3182C183.266 15.3182 184.459 15.5227 185.527 15.9318C186.596 16.3409 187.508 16.9356 188.266 17.7159C189.024 18.4886 189.607 19.428 190.016 20.5341C190.425 21.6402 190.63 22.8864 190.63 24.2727V25.7273H175.039V22.2727H184.857C184.849 21.7727 184.721 21.3333 184.471 20.9545C184.228 20.5682 183.899 20.2689 183.482 20.0568C183.073 19.8371 182.607 19.7273 182.084 19.7273C181.577 19.7273 181.111 19.8371 180.686 20.0568C180.262 20.2689 179.921 20.5644 179.664 20.9432C179.414 21.322 179.281 21.7652 179.266 22.2727V26C179.266 26.5606 179.383 27.0606 179.618 27.5C179.853 27.9394 180.19 28.2841 180.63 28.5341C181.069 28.7841 181.599 28.9091 182.221 28.9091C182.652 28.9091 183.046 28.8485 183.402 28.7273C183.766 28.6061 184.077 28.4318 184.334 28.2045C184.592 27.9697 184.781 27.6894 184.902 27.3636H190.63C190.433 28.5758 189.967 29.6288 189.232 30.5227C188.497 31.4091 187.524 32.0985 186.311 32.5909C185.107 33.0758 183.698 33.3182 182.084 33.3182Z" fill="url(#paint1_linear_403_126)"/>
<defs>
<linearGradient id="paint0_linear_403_126" x1="15.5359" y1="0" x2="15.5359" y2="34.2512" gradientUnits="userSpaceOnUse">
<stop stop-color="#FFD46F"/>
<stop offset="1" stop-color="#FFB910"/>
</linearGradient>
<linearGradient id="paint1_linear_403_126" x1="114.036" y1="8" x2="114.036" y2="34" gradientUnits="userSpaceOnUse">
<stop stop-color="#FFD46F"/>
<stop offset="1" stop-color="#FFB910"/>
</linearGradient>
</defs>
</svg>
