<svg width="56" height="56" viewBox="0 0 56 56" fill="none" xmlns="http://www.w3.org/2000/svg">
<rect x="3" y="3" width="50" height="50" rx="10" fill="url(#paint0_linear_403_168)"/>
<rect x="1.5" y="1.5" width="53" height="53" rx="11.5" stroke="#EAE9FC" stroke-opacity="0.97" stroke-width="3"/>
<path d="M28 13C24.0218 13 20.2064 14.5804 17.3934 17.3934C14.5804 20.2064 13 24.0218 13 28C13 31.9782 14.5804 35.7936 17.3934 38.6066C20.2064 41.4196 24.0218 43 28 43C31.9782 43 35.7936 41.4196 38.6066 38.6066C41.4196 35.7936 43 31.9782 43 28C43 24.0218 41.4196 20.2064 38.6066 17.3934C35.7936 14.5804 31.9782 13 28 13V13ZM33.625 20.5C34.66 20.5 35.5 21.76 35.5 23.3125C35.5 24.865 34.66 26.125 33.625 26.125C32.59 26.125 31.75 24.865 31.75 23.3125C31.75 21.76 32.59 20.5 33.625 20.5ZM22.375 20.5C23.41 20.5 24.25 21.76 24.25 23.3125C24.25 24.865 23.41 26.125 22.375 26.125C21.34 26.125 20.5 24.865 20.5 23.3125C20.5 21.76 21.34 20.5 22.375 20.5ZM28 39.25C23.1119 39.25 19.0525 35.1513 18.625 29.9256C21.3719 31.5119 24.6025 32.4175 28 32.4175C31.3975 32.4175 34.6281 31.5156 37.375 29.9294C36.9475 35.1569 32.8881 39.25 28 39.25Z" fill="white"/>
<defs>
<linearGradient id="paint0_linear_403_168" x1="28" y1="3" x2="28" y2="53" gradientUnits="userSpaceOnUse">
<stop stop-color="#B48AFF"/>
<stop offset="1" stop-color="#9355F1"/>
</linearGradient>
</defs>
</svg>
