<svg width="56" height="56" viewBox="0 0 56 56" fill="none" xmlns="http://www.w3.org/2000/svg">
<rect x="3" y="3" width="50" height="50" rx="10" fill="url(#paint0_linear_403_245)"/>
<rect x="1.5" y="1.5" width="53" height="53" rx="11.5" stroke="#EAE9FC" stroke-opacity="0.97" stroke-width="3"/>
<path d="M38.75 26.75V18H33.5V14.5H28.25V11H21.25V16.25H17.75V26.75H16L19.5 46H37L40.5 26.75H38.75ZM35.005 26.75C34.725 27.8175 34.2 28.78 33.5 29.585V22.585L37 24.335V26.75H35.005ZM37 19.75V22.375L33.5 20.625V19.75H37ZM28.25 16.25H31.75V22.375L28.25 24.125V16.25ZM28.25 26.085L31.75 24.335V31.0375C30.7175 31.65 29.5275 32 28.25 32V26.085ZM26.5 31.755C25.1175 31.3875 23.875 30.635 23 29.585V24.335L26.5 22.585V31.755ZM23 12.75H26.5V20.625L24.75 21.5V16.25H23V12.75ZM19.5 18H23V22.375L21.25 23.25V26.75H19.5V18Z" fill="white"/>
<defs>
<linearGradient id="paint0_linear_403_245" x1="28" y1="3" x2="28" y2="53" gradientUnits="userSpaceOnUse">
<stop stop-color="#B48AFF"/>
<stop offset="1" stop-color="#9355F1"/>
</linearGradient>
</defs>
</svg>
