<svg width="103" height="52" viewBox="0 0 103 52" fill="none" xmlns="http://www.w3.org/2000/svg">
<path d="M90.1349 6.22966C91.0247 7.55943 91.8787 9.19985 91.4587 10.9578C90.0093 10.1283 88.8436 8.77381 87.9192 7.43668C86.9883 6.09056 86.0217 4.65915 85.6904 3C87.5187 3.46761 89.1553 4.76567 90.1349 6.22966Z" fill="#B48AFF"/>
<path d="M11.5563 10.955C11.1374 9.19668 11.9932 7.5569 12.8846 6.22789C13.8658 4.76476 15.503 3.4679 17.3314 3.00159C16.9992 4.66042 16.0311 6.09129 15.0992 7.43654C14.1736 8.77302 13.0062 10.1266 11.5563 10.955Z" fill="#B48AFF"/>
<path d="M10.2799 14.3279C10.6069 12.9354 10.5997 11.411 10.2884 10.105C10.0146 8.95717 9.61628 7.3346 8.30524 6.78711C7.35227 8.31572 6.96919 10.3974 7.52459 11.9571C7.92617 13.0854 8.64837 14.5771 10.1461 14.8079C11.5205 15.1248 12.9102 14.3916 14.0078 13.7863C15.2283 13.1134 16.4237 12.0428 17.15 10.7699C15.8176 10.0974 14.3003 10.6432 13.1588 11.1662C11.9283 11.73 10.7979 12.9398 10.2799 14.3279Z" fill="#B48AFF"/>
<path d="M35.9917 45.1666L35.2735 42.9561L34.5552 45.1666H32.231L34.1113 46.5328L33.3931 48.7434L35.2735 47.3771L37.1539 48.7434L36.4356 46.5328L38.316 45.1666H35.9917Z" fill="#B48AFF"/>
<path d="M44.298 45.1669L43.5651 42.9563L42.8322 45.1669H40.4604L42.3793 46.533L41.6464 48.7435L43.5651 47.3774L45.4839 48.7435L44.751 46.533L46.6697 45.1669H44.298Z" fill="#B48AFF"/>
<path d="M52.5246 45.1669L51.7916 42.9563L51.0587 45.1669H48.687L50.6057 46.533L49.8728 48.7435L51.7916 47.3774L53.7104 48.7435L52.9775 46.533L54.8963 45.1669H52.5246Z" fill="#B48AFF"/>
<path d="M60.7501 45.1669L60.0172 42.9563L59.2843 45.1669H56.9126L58.8313 46.533L58.0984 48.7435L60.0172 47.3774L61.936 48.7435L61.203 46.533L63.1219 45.1669H60.7501Z" fill="#B48AFF"/>
<path d="M69.0275 45.1669L68.3098 42.9563L67.5911 45.1669H65.2671L67.1473 46.533L66.4296 48.7435L68.3098 47.3774L70.19 48.7435L69.4713 46.533L71.3525 45.1669H69.0275Z" fill="#B48AFF"/>
<path d="M6.04829 18.0852C6.72416 19.1164 7.77001 20.4079 9.29494 20.3711C10.6816 20.4404 11.8797 19.494 12.8231 18.7042C13.8392 17.8535 14.7564 16.6094 15.1435 15.2645C13.7252 14.8519 12.3673 15.6163 11.3547 16.3373C10.2973 17.0904 9.48404 18.4685 9.30933 19.8836C9.29624 18.4659 8.91252 17.0017 8.29391 15.8222C7.72833 14.7439 6.94022 13.2863 5.53413 12.9949C4.98015 14.6728 5.15691 16.7257 6.04829 18.0852Z" fill="#B48AFF"/>
<path d="M9.74593 25.9247C8.33065 26.1619 6.95012 25.2947 6.05354 24.2748C4.89923 22.9615 4.21243 21.1999 4.35249 19.4363C5.80642 19.4732 6.90758 20.73 7.72146 21.6804C8.59801 22.7039 9.31621 24.0506 9.66074 25.4398C9.5092 24.0553 9.974 22.5604 10.8368 21.6366C11.6696 20.7449 12.8363 19.7731 14.2878 19.9291C14.2565 21.3329 13.5528 22.6704 12.8271 23.6721C12.1506 24.6055 11.1084 25.7602 9.74593 25.9247Z" fill="#B48AFF"/>
<path d="M7.13159 30.5895C8.43505 31.4381 10.0159 32.2781 11.6774 31.6424C13.0404 31.1601 13.907 29.7882 14.44 28.5289C15.0046 27.1945 15.3817 25.656 15.1206 24.1956C13.6228 24.3285 12.3809 25.4001 11.7212 26.7082C11.0316 28.0758 10.8993 29.7035 11.4291 31.1373C10.6464 29.6623 9.50169 28.4688 8.28914 27.366C7.1869 26.3636 5.59919 25.3075 4 25.5062C4.30427 27.4832 5.51075 29.5343 7.13159 30.5895Z" fill="#B48AFF"/>
<path d="M15.0351 36.9872C16.3178 36.2204 16.834 34.6069 17.045 33.2243C17.2724 31.7333 17.2627 30.0888 16.6434 28.6743C15.1553 29.09 14.1338 30.4294 13.7965 31.8964C13.4401 33.4463 13.7408 35.0982 14.6077 36.4179C13.4554 35.096 11.9232 34.0044 10.4549 33.239C9.03659 32.4997 7.29658 31.608 5.59326 32.1465C6.41461 34.1511 8.17162 36.0174 10.1189 36.7894C11.627 37.3871 13.4616 37.9783 15.0351 36.9872Z" fill="#B48AFF"/>
<path d="M21.116 37.506C21.3043 38.9452 21.2989 40.7706 20.1816 41.8784C18.7852 43.3076 16.6242 43.0318 14.9575 42.7174C12.7199 42.2949 10.2011 40.7688 8.85107 38.7367C10.4998 37.8289 12.5163 38.4096 14.1486 38.8797L14.2418 38.9065C16.0639 39.4307 18.0055 40.275 19.6294 41.4286C18.3335 40.2577 17.3893 38.539 17.3431 36.8067C17.3015 35.2573 17.974 33.5996 19.4213 32.8611C20.4316 34.1872 20.9047 35.8897 21.116 37.506Z" fill="#B48AFF"/>
<path d="M27.6008 45.9536C28.4236 44.3872 27.6083 42.5488 26.9587 41.19C26.1906 39.5837 25.1411 37.9466 23.6393 36.7709C22.1971 38.0137 22.3343 39.7921 22.763 41.3376C23.2729 43.1752 25.0404 44.7417 26.8707 45.6344C24.7509 44.8439 22.4359 44.3694 20.2334 44.2294L20.0103 44.215C18.2408 44.0997 15.9373 43.9497 14.5273 45.2446C16.6592 47.0569 19.6873 48.1025 22.3561 48.0482C24.1447 48.0118 26.5985 47.8002 27.6008 45.9536Z" fill="#B48AFF"/>
<path d="M92.7312 14.3329C92.2149 12.9438 91.0848 11.7325 89.8552 11.1676C88.7132 10.6437 87.1967 10.097 85.8643 10.7683C86.5895 12.0417 87.7834 13.1132 89.0033 13.7871C90.0998 14.393 91.4886 15.1271 92.8633 14.8116C94.3614 14.5821 95.0855 13.0908 95.4882 11.9625C96.0456 10.4035 95.6646 8.32146 94.7131 6.79187C93.4012 7.33861 93.0007 8.96074 92.7269 10.1084C92.4141 11.4148 92.4054 12.9398 92.7312 14.3329Z" fill="#B48AFF"/>
<path d="M91.6541 16.3403C92.7106 17.0936 93.5213 18.471 93.6956 19.8851C93.7108 18.4682 94.0961 17.0054 94.7153 15.8271C95.2814 14.7491 96.0715 13.2921 97.4776 13.0017C98.0297 14.6801 97.8511 16.733 96.958 18.0917C96.2826 19.121 95.237 20.4099 93.7151 20.3754C92.3263 20.4463 91.127 19.4976 90.1831 18.7061C89.1678 17.8546 88.252 16.6099 87.8667 15.2648C89.2847 14.853 90.6421 15.6185 91.6541 16.3403Z" fill="#B48AFF"/>
<path d="M93.3387 25.449C93.4935 24.0634 93.0302 22.5653 92.1664 21.6397C91.3351 20.7474 90.1693 19.7747 88.7178 19.9296C88.747 21.3334 89.4495 22.6715 90.1747 23.6737C90.8502 24.6073 91.8904 25.762 93.2521 25.9283C94.6679 26.1681 96.0502 25.3014 96.9486 24.2815C98.1035 22.9693 98.792 21.2082 98.6545 19.4443C97.1997 19.4803 96.0978 20.7361 95.2827 21.6858C94.4038 22.71 93.684 24.0582 93.3387 25.449Z" fill="#B48AFF"/>
<path d="M91.2778 26.7108C91.9662 28.0791 92.0972 29.7072 91.5657 31.1406C92.3494 29.6657 93.4957 28.473 94.7091 27.371C95.8121 26.3693 97.4011 25.3147 98.9999 25.5144C98.6946 27.4914 97.4855 29.5416 95.864 30.5954C94.5608 31.4419 92.9815 32.2801 91.3222 31.647C89.9572 31.1657 89.0902 29.7909 88.5576 28.5294C87.9937 27.1947 87.6181 25.6559 87.8811 24.1956C89.3781 24.3297 90.6197 25.4023 91.2778 26.7108Z" fill="#B48AFF"/>
<path d="M88.3846 36.4153C89.2506 35.0969 89.5525 33.4466 89.1986 31.8975C88.863 30.4301 87.8423 29.09 86.354 28.6732C85.7337 30.0871 85.7229 31.7314 85.948 33.2228C86.158 34.6027 86.6711 36.2129 87.9462 36.9825C89.5212 37.9814 91.3602 37.3906 92.8702 36.7931C94.8186 36.0225 96.5775 34.1575 97.4002 32.1533C95.6975 31.6138 93.957 32.5042 92.5379 33.2424C91.0701 34.0063 89.5374 35.0955 88.3846 36.4153Z" fill="#B48AFF"/>
<path d="M81.8725 37.5019C81.6831 38.9408 81.6864 40.7661 82.8034 41.8748C84.1976 43.3051 86.3592 43.0309 88.0262 42.7175C90.2646 42.2967 92.7845 40.7722 94.1365 38.7414C92.489 37.8325 90.4714 38.4115 88.8391 38.8803L88.7449 38.9071C86.9232 39.4297 84.9813 40.2723 83.3565 41.4242C84.6533 40.2542 85.5983 38.5369 85.6459 36.8052C85.6892 35.2559 85.0181 33.5978 83.572 32.858C82.5599 34.1834 82.0858 35.8857 81.8725 37.5019Z" fill="#B48AFF"/>
<path d="M80.622 48.0429C78.8339 48.0051 76.38 47.7917 75.3798 45.9442L75.3657 45.9189C74.5669 44.3573 75.3787 42.5321 76.026 41.1813C76.7956 39.5755 77.8467 37.9392 79.3491 36.7648C80.7909 38.0086 80.6513 39.7868 80.2215 41.3319C79.7095 43.1692 77.9408 44.7346 76.1094 45.6258C78.2299 44.8369 80.5452 44.3642 82.7479 44.2257L82.972 44.2114C84.7418 44.0975 87.0452 43.9494 88.4534 45.2451C86.32 47.0556 83.2913 48.0991 80.622 48.0429Z" fill="#B48AFF"/>
<path d="M33.2 10.2871C33.2 10.0757 33.2 7 33.2 7H31.3723C31.3723 7 31.3723 10.028 31.3723 10.1236C31.3723 10.6827 30.8541 11.0578 29.9811 11.0578C29.0673 11.0578 28.5694 10.6963 28.5694 10.1166C28.5694 10.0212 28.5694 7 28.5694 7H26.7212C26.7212 7 26.7212 9.87112 26.7212 10.1166C26.7212 11.7398 28.0511 12.4286 29.9061 12.4286C31.8907 12.4286 33.2 11.733 33.2 10.2871Z" fill="#B48AFF"/>
<path d="M39.3561 12.3536V10.9283H36.0963V7H34.248V12.3536H39.3561Z" fill="#B48AFF"/>
<path d="M44.8482 8.34359V7H38.458V8.34359H40.7153V12.3536H42.5839V8.34359H44.8482Z" fill="#B48AFF"/>
<path d="M47.3056 12.3536V7H45.4302V12.3536H47.3056Z" fill="#B48AFF"/>
<path d="M55.9099 12.3536V7H53.598L52.1385 10.2122L50.7474 7H48.3604V12.3536H50.0994V9.46205L51.3542 12.3536H52.9092L54.1776 9.46205V12.3536H55.9099Z" fill="#B48AFF"/>
<path d="M58.8067 11.3647H61.6984L62.169 12.3536H64.1399L61.4392 7H59.2364L56.3789 12.3536H58.3088L58.8067 11.3647ZM61.1187 10.1644H59.4069L60.082 8.87543L60.2866 8.38451L60.4777 8.86863L61.1187 10.1644Z" fill="#B48AFF"/>
<path d="M69.9368 8.34359V7H63.5469V8.34359H65.8042V12.3536H67.673V8.34359H69.9368Z" fill="#B48AFF"/>
<path d="M76.1515 12.3536V11.0237H72.3132V10.328H75.9947V9.02552H72.3132V8.33666H76.1043V7H70.5127V12.3536H76.1515Z" fill="#B48AFF"/>
<path d="M40.6593 15.1993H38.8929C38.8929 15.1993 37.7403 18.5683 37.7403 18.6502C37.7403 18.5683 36.6628 15.1993 36.6628 15.1993H34.7465C34.7465 15.1993 33.6757 18.5683 33.6757 18.6502C33.6757 18.5683 32.5163 15.1993 32.5163 15.1993H30.5317L32.5369 20.5529H34.5351C34.5351 20.5529 35.6126 17.3544 35.6194 17.2658C35.6262 17.3544 36.6969 20.5529 36.6969 20.5529H38.7019L40.6593 15.1993Z" fill="#B48AFF"/>
<path d="M43.0766 20.5529V15.1993H41.2012V20.5529H43.0766Z" fill="#B48AFF"/>
<path d="M50.3716 20.5529V15.1993H48.6257V18.1114L46.0546 15.1993H44.1313V20.5529H45.8909V17.5726L48.5439 20.5529H50.3716Z" fill="#B48AFF"/>
<path d="M57.6776 20.5529V15.1993H55.9317V18.1114L53.3606 15.1993H51.4375V20.5529H53.197V17.5726L55.8499 20.5529H57.6776Z" fill="#B48AFF"/>
<path d="M64.3842 20.5529V19.223H60.5447V18.5274H64.2273V17.2249H60.5447V16.536H64.3364V15.1993H58.7441V20.5529H64.3842Z" fill="#B48AFF"/>
<path d="M71.5931 16.8292C71.5931 16.3451 71.4766 15.9972 71.231 15.7449C70.9106 15.4039 70.3585 15.1993 69.5124 15.1993H65.2505V20.5529H67.0714V18.6639H68.7286L70.0589 20.5529H72.0911L70.475 18.3705C70.8357 18.316 71.1298 18.0978 71.3198 17.8387C71.4904 17.5999 71.5931 17.2452 71.5931 16.8292ZM69.8203 16.9997C69.8203 17.0885 69.8064 17.1975 69.7579 17.2794C69.6899 17.4157 69.5124 17.4704 69.2197 17.4704H67.0782V16.4951H69.185C69.4721 16.4951 69.6636 16.5428 69.7579 16.7202C69.8064 16.7883 69.8203 16.8975 69.8203 16.9997Z" fill="#B48AFF"/>
<path d="M33.9703 25.82C33.9703 25.7325 33.9703 23.204 33.9703 23.204H33.3318C33.3318 23.204 33.3318 25.7221 33.3318 25.7788C33.3318 26.3864 32.7601 26.7315 31.9362 26.7315C30.963 26.7315 30.484 26.3607 30.484 25.7737C30.484 25.7169 30.484 23.204 30.484 23.204H29.8403C29.8403 23.204 29.8403 25.6552 29.8403 25.753C29.8403 26.8242 30.6746 27.2979 31.9105 27.2979C33.1875 27.2979 33.9703 26.7932 33.9703 25.82Z" fill="#B48AFF"/>
<path d="M38.5512 27.2464V26.6542H35.7652V23.204H35.1216V27.2464H38.5512Z" fill="#B48AFF"/>
<path d="M42.2085 23.791V23.204H37.9136V23.791H39.7366V27.2464H40.3855V23.791H42.2085Z" fill="#B48AFF"/>
<path d="M46.7857 24.3471C46.7857 24.0587 46.7238 23.8476 46.6158 23.6777C46.4252 23.3944 46.0595 23.204 45.452 23.204H42.8359V27.2464H43.4693V25.5419H45.3128L46.4406 27.2464H47.1822L45.9617 25.4337C46.2707 25.3978 46.5127 25.2226 46.6414 24.996C46.7342 24.8415 46.7857 24.615 46.7857 24.3471ZM46.1471 24.3986C46.1471 24.5119 46.1214 24.6511 46.0751 24.7437C45.9927 24.893 45.8021 24.9702 45.4932 24.9754H43.4744C43.4744 24.9651 43.4744 23.7808 43.4744 23.7808H45.3747C45.7609 23.7808 45.9669 23.8734 46.0751 24.0485C46.1214 24.1309 46.1471 24.2699 46.1471 24.3986Z" fill="#B48AFF"/>
<path d="M48.6193 26.2474H51.1376L51.6525 27.2464H52.3426L50.2929 23.204H49.5359L47.4194 27.2464H48.094L48.6193 26.2474ZM50.8697 25.6757H48.8974L49.7161 24.1257L49.8965 23.7498L50.0767 24.1257L50.8697 25.6757Z" fill="#B48AFF"/>
<path d="M58.8724 26.8602C59.0321 26.6748 59.1042 26.4122 59.1042 26.1289C59.1042 25.8612 59.0269 25.5933 58.8673 25.4286C58.7076 25.2742 58.4502 25.1454 58.1669 25.1196C58.3317 25.0938 58.4604 24.9909 58.548 24.8827C58.6871 24.723 58.7693 24.4656 58.7693 24.2081C58.7693 23.9351 58.6871 23.688 58.5119 23.518C58.3214 23.3276 57.997 23.204 57.5438 23.204H54.8247V27.2464H57.7447C58.2905 27.2464 58.6716 27.1074 58.8724 26.8602ZM58.105 24.3369C58.105 24.5171 58.0484 24.6767 57.9507 24.7694C57.8527 24.8776 57.6879 24.9239 57.5129 24.9239H55.4529V23.7601H57.3944C57.6313 23.7601 57.8115 23.8064 57.9351 23.9197C58.0433 24.0227 58.105 24.1721 58.105 24.3369ZM58.311 26.4688C58.1823 26.613 57.9609 26.6852 57.6365 26.6852H55.4529V25.4853H57.652C57.9507 25.4853 58.1566 25.547 58.2802 25.6655C58.3934 25.7737 58.4399 25.9127 58.4399 26.0723C58.4399 26.2371 58.4038 26.3761 58.311 26.4688Z" fill="#B48AFF"/>
<path d="M63.7793 27.2464V26.6542H60.6381V25.5007H63.6558V24.9136H60.6381V23.791H63.7433V23.204H60.0098V27.2464H63.7793Z" fill="#B48AFF"/>
<path d="M68.8103 26.0515C68.8103 25.3924 68.3734 25.0525 67.2969 24.9289C67.1162 24.9033 66.7247 24.8621 66.5136 24.8363C65.5146 24.7178 65.2108 24.5839 65.2108 24.239C65.2108 23.9042 65.5455 23.7136 66.5548 23.7136C67.3372 23.7136 67.7394 23.8682 67.9406 24.1462C67.9974 24.2234 68.028 24.3162 68.0432 24.3882H68.7326C68.7132 24.2698 68.6661 24.105 68.5939 23.9711C68.3165 23.4923 67.745 23.1471 66.5548 23.1471C65.1335 23.142 64.5465 23.6571 64.5465 24.2956C64.5465 24.9341 65.0048 25.2585 66.1944 25.3976C66.4004 25.4233 66.7659 25.4645 66.9463 25.4852C67.8684 25.5984 68.157 25.7375 68.157 26.1237C68.157 26.4791 67.8268 26.7365 66.7711 26.7365C65.906 26.7365 65.4425 26.582 65.2571 26.2833C65.2005 26.2009 65.1645 26.0722 65.1593 25.9847H64.4795C64.495 26.17 64.5465 26.3709 64.6392 26.5305C64.907 27.0198 65.5353 27.303 66.7505 27.303C68.2027 27.303 68.8103 26.8343 68.8103 26.0515Z" fill="#B48AFF"/>
<path d="M73.4289 23.791V23.204H69.1343V23.791H70.957V27.2464H71.6062V23.791H73.4289Z" fill="#B48AFF"/>
<path d="M28.0168 30.7602C28.0168 30.3482 27.9344 30.0701 27.7952 29.859C27.5997 29.555 27.2185 29.3955 26.5542 29.3955H24V33.4379H24.6385V32.1196C24.6385 32.1196 26.441 32.1196 26.5285 32.1196C27.1516 32.1145 27.579 31.9703 27.8056 31.6408C27.9498 31.4399 28.0168 31.1515 28.0168 30.7602ZM27.3679 30.7602C27.3679 30.966 27.3472 31.1206 27.2803 31.2236C27.1619 31.4141 26.9198 31.5326 26.4203 31.5326C26.374 31.5326 24.6385 31.5326 24.6385 31.5326V29.9723H26.441C26.9095 29.9723 27.1516 30.0803 27.2803 30.2915C27.3421 30.3841 27.3679 30.5542 27.3679 30.7602Z" fill="#B48AFF"/>
<path d="M32.6773 33.4379V32.8458H29.536V31.6922H32.5537V31.1052H29.536V29.9826H32.6412V29.3955H28.9077V33.4379H32.6773Z" fill="#B48AFF"/>
<path d="M37.5909 30.5387C37.5909 30.2503 37.5292 30.0391 37.421 29.8692C37.2304 29.586 36.8648 29.3955 36.2571 29.3955H33.6411V33.4379H34.2745V31.7334H36.1181L37.2459 33.4379H37.9875L36.7669 31.6252C37.076 31.5893 37.318 31.4141 37.4468 31.1876C37.5394 31.033 37.5909 30.8065 37.5909 30.5387ZM36.9524 30.5901C36.9524 30.7035 36.9266 30.8426 36.8802 30.9352C36.7978 31.0845 36.6073 31.1618 36.2983 31.1669H34.2796C34.2796 31.1566 34.2796 29.9723 34.2796 29.9723H36.1799C36.5661 29.9723 36.772 30.065 36.8802 30.24C36.9266 30.3224 36.9524 30.4614 36.9524 30.5901Z" fill="#B48AFF"/>
<path d="M42.3641 29.9826V29.3955H38.7695V33.4379H39.408V31.718H42.2302V31.1154H39.408V29.9826H42.3641Z" fill="#B48AFF"/>
<path d="M45.295 29.3231C44.435 29.3231 43.8428 29.5342 43.4204 29.9772C43.0652 30.3221 42.9106 30.8011 42.9106 31.4036C42.9106 32.0627 43.1115 32.5571 43.4823 32.8918C43.8789 33.2884 44.4864 33.4943 45.295 33.4943C46.1292 33.4943 46.778 33.2884 47.1643 32.8712C47.4991 32.5313 47.6741 32.0473 47.6741 31.3984C47.6741 30.7702 47.5247 30.2912 47.1695 29.9514C46.7626 29.5291 46.1549 29.3231 45.295 29.3231ZM45.295 32.9176C44.7285 32.9176 44.3268 32.794 44.023 32.5469C43.7141 32.2945 43.5647 31.9082 43.5647 31.4138C43.5647 30.9504 43.6934 30.5642 43.9406 30.3324C44.2239 30.0647 44.6564 29.905 45.2899 29.905C45.9438 29.905 46.3506 30.0596 46.6544 30.3273C46.912 30.5539 47.0252 30.9555 47.0252 31.4087C47.0252 31.867 46.9069 32.2585 46.6442 32.4953C46.3404 32.7785 45.913 32.9176 45.295 32.9176Z" fill="#B48AFF"/>
<path d="M52.5064 30.5387C52.5064 30.2503 52.4445 30.0391 52.3365 29.8692C52.1459 29.586 51.7802 29.3955 51.1727 29.3955H48.5566V33.4379H49.19V31.7334H51.0335L52.1614 33.4379H52.9029L51.6824 31.6252C51.9914 31.5893 52.2334 31.4141 52.3621 31.1876C52.4549 31.033 52.5064 30.8065 52.5064 30.5387ZM51.8678 30.5901C51.8678 30.7035 51.8421 30.8426 51.7958 30.9352C51.7134 31.0845 51.5228 31.1618 51.2139 31.1669H49.1951C49.1951 31.1566 49.1951 29.9723 49.1951 29.9723H51.0954C51.4816 29.9723 51.6876 30.065 51.7958 30.24C51.8421 30.3224 51.8678 30.4614 51.8678 30.5901Z" fill="#B48AFF"/>
<path d="M58.6658 33.4379V29.3955H57.8315L56.1682 32.7222L54.5357 29.3955H53.686V33.4379H54.2989V30.3275L55.8231 33.4379H56.4925L58.0529 30.3275V33.4379H58.6658Z" fill="#B48AFF"/>
<path d="M60.4743 32.4389H62.9925L63.5074 33.4379H64.1976L62.1479 29.3955H61.3909L59.2744 33.4379H59.949L60.4743 32.4389ZM62.7247 31.8673H60.7524L61.5711 30.3173L61.7515 29.9414L61.9316 30.3173L62.7247 31.8673Z" fill="#B48AFF"/>
<path d="M68.8373 33.4379V29.3955H68.2242V32.5367L65.547 29.3955H64.8208V33.4379H65.4439V30.2761L68.1423 33.4379H68.8373Z" fill="#B48AFF"/>
<path d="M74.3927 31.9289H73.7228C73.7019 32.1142 73.6298 32.2997 73.5008 32.4387C73.2234 32.7631 72.7809 32.9021 72.1012 32.9021C71.5297 32.9021 70.9165 32.7424 70.6225 32.3253C70.4685 32.1297 70.37 31.8413 70.37 31.4087C70.37 31.0225 70.438 30.7341 70.5864 30.5384C70.8333 30.142 71.3535 29.936 72.0859 29.936C72.7961 29.936 73.2442 30.1315 73.4814 30.4045C73.6146 30.5487 73.6922 30.7187 73.7172 30.9195H74.3872C74.3664 30.6929 74.2943 30.4251 74.1403 30.1986C73.8101 29.7093 73.2026 29.3231 72.0901 29.3231C71.0303 29.3231 70.3964 29.663 70.0454 30.1727C69.8193 30.4663 69.7056 30.8783 69.7056 31.4036C69.7056 31.9906 69.8457 32.4233 70.087 32.727C70.438 33.206 71.1121 33.4943 72.1317 33.4943C73.1776 33.4943 73.8004 33.1802 74.1098 32.6807C74.2845 32.4387 74.3719 32.1503 74.3927 31.9289Z" fill="#B48AFF"/>
<path d="M79.0003 33.4379V32.8458H75.8584V31.6922H78.8768V31.1052H75.8584V29.9826H78.9642V29.3955H75.23V33.4379H79.0003Z" fill="#B48AFF"/>
</svg>
