<svg width="56" height="56" viewBox="0 0 56 56" fill="none" xmlns="http://www.w3.org/2000/svg">
<rect x="3" y="3" width="50" height="50" rx="10" fill="url(#paint0_linear_403_161)"/>
<rect x="1.5" y="1.5" width="53" height="53" rx="11.5" stroke="#EAE9FC" stroke-opacity="0.97" stroke-width="3"/>
<path d="M27.1559 44.6811C27.6446 44.9421 28.258 44.9404 28.7468 44.6794C42.0656 37.5246 43.0115 23.5458 42.9999 19.5711C42.9986 19.2516 42.9042 18.9394 42.7283 18.6728C42.5523 18.4062 42.3024 18.1967 42.0091 18.0699L28.6271 12.1419C28.4141 12.0481 28.1839 11.9997 27.9511 12C27.7184 12.0003 27.4883 12.0492 27.2756 12.1436L13.9866 18.0716C13.6977 18.1984 13.4513 18.4056 13.2768 18.6685C13.1023 18.9314 13.0071 19.2389 13.0025 19.5544C12.946 23.5092 13.7422 37.518 27.1559 44.6811ZM22.478 25.6287L26.2898 29.4405L33.4263 22.304L35.7769 24.6546L26.2898 34.1417L20.1274 27.9793L22.478 25.6287Z" fill="white"/>
<defs>
<linearGradient id="paint0_linear_403_161" x1="28" y1="3" x2="28" y2="53" gradientUnits="userSpaceOnUse">
<stop stop-color="#B48AFF"/>
<stop offset="1" stop-color="#9355F1"/>
</linearGradient>
</defs>
</svg>
