<svg width="103" height="52" viewBox="0 0 103 52" fill="none" xmlns="http://www.w3.org/2000/svg">
<path d="M90.1349 6.22966C91.0247 7.55943 91.8787 9.19985 91.4587 10.9578C90.0093 10.1283 88.8436 8.77381 87.9192 7.43668C86.9883 6.09056 86.0217 4.65915 85.6904 3C87.5187 3.46761 89.1553 4.76567 90.1349 6.22966Z" fill="#B48AFF"/>
<path d="M11.5563 10.955C11.1374 9.19668 11.9932 7.5569 12.8846 6.22789C13.8658 4.76476 15.503 3.4679 17.3314 3.00159C16.9992 4.66042 16.0311 6.09129 15.0992 7.43654C14.1736 8.77302 13.0062 10.1266 11.5563 10.955Z" fill="#B48AFF"/>
<path d="M10.2799 14.3279C10.6069 12.9354 10.5997 11.411 10.2884 10.105C10.0146 8.95717 9.61628 7.3346 8.30524 6.78711C7.35227 8.31572 6.96919 10.3974 7.52459 11.9571C7.92617 13.0854 8.64837 14.5771 10.1461 14.8079C11.5205 15.1248 12.9102 14.3916 14.0078 13.7863C15.2283 13.1134 16.4237 12.0428 17.15 10.7699C15.8176 10.0974 14.3003 10.6432 13.1588 11.1662C11.9283 11.73 10.7979 12.9398 10.2799 14.3279Z" fill="#B48AFF"/>
<path d="M36.9523 15.6657V8.67468H34.5655V11.2218H30.9854V8.67468H28.5986V15.6657H30.9854V13.1276H34.5655V15.6657H36.9523Z" fill="#B48AFF"/>
<path d="M44.8667 8.67468H47.5027L43.7624 13.3591V15.6657H41.3668V13.368L37.6709 8.67468H40.387L42.5957 11.471L44.8667 8.67468Z" fill="#B48AFF"/>
<path fill-rule="evenodd" clip-rule="evenodd" d="M55.8155 9.27132C56.2875 9.64541 56.5547 10.2778 56.5547 11.195C56.5547 11.9431 56.3676 12.5041 56.0114 12.8961C55.5305 13.4482 54.7379 13.6975 53.7049 13.7065C53.3842 13.7154 50.6413 13.7065 50.6413 13.7065V15.6657H48.2456V8.67468H53.6692C54.631 8.67468 55.3613 8.8706 55.8155 9.27132ZM54.0432 11.7383C54.1146 11.6136 54.1502 11.4533 54.1502 11.2306C54.1502 10.9991 54.1056 10.8032 54.0255 10.6963C53.874 10.4737 53.589 10.3667 53.126 10.3667H50.6235V12.0767H53.1081C53.6069 12.0767 53.9008 11.9609 54.0432 11.7383Z" fill="#B48AFF"/>
<path d="M64.8731 13.929V15.6657H57.5083V8.67468H64.8114V10.4202H59.8594V11.3197H64.6685V13.0207H59.8594V13.929H64.8731Z" fill="#B48AFF"/>
<path fill-rule="evenodd" clip-rule="evenodd" d="M73.8146 9.38714C74.1361 9.71663 74.2866 10.1708 74.2866 10.8032C74.2866 11.3465 74.1534 11.8095 73.9305 12.1213C73.6815 12.4596 73.2983 12.7446 72.8264 12.8159L74.9371 15.6657H72.283L70.5468 13.1988H68.383V15.6657H66.0049V8.67468H71.5708C72.6748 8.67468 73.3968 8.94183 73.8146 9.38714ZM71.8912 11.3909C71.9539 11.2841 71.9713 11.1415 71.9713 11.0258C71.9713 10.8923 71.9539 10.7497 71.8912 10.6606C71.7667 10.4291 71.5177 10.3667 71.1432 10.3667H68.3917V11.6403H71.1876C71.5708 11.6403 71.8024 11.5691 71.8912 11.3909Z" fill="#B48AFF"/>
<path d="M63.5976 24.4339C63.5976 22.8359 62.5824 21.9961 60.2145 21.7394C59.8295 21.6928 58.6981 21.5761 57.9865 21.5178C56.1551 21.3195 55.607 21.2146 55.607 20.7479C55.607 20.3281 56.0385 20.1298 57.6832 20.1298C58.8497 20.1298 59.503 20.3513 59.7595 20.6896C59.8879 20.8529 59.9345 20.9812 59.9462 21.1096H63.3057C63.2706 20.8295 63.154 20.4329 62.9673 20.0831C62.3608 18.9166 60.9027 17.9834 57.7649 17.9834C54.2304 17.9834 52.2942 19.2316 52.2942 20.8646C52.2942 22.4393 53.3906 23.3608 56.3534 23.6292C56.6884 23.6578 57.4079 23.7258 57.997 23.7815L58.0334 23.7849L58.04 23.7856L58.0426 23.7858L58.3598 23.8158C59.9112 23.9791 60.3311 24.084 60.3311 24.574C60.3311 25.0288 59.9228 25.2738 58.2082 25.2738C56.8784 25.2738 56.0969 25.0755 55.8168 24.7372C55.7003 24.5973 55.6186 24.3873 55.5953 24.2473H52.2358C52.2708 24.4806 52.3291 24.8539 52.4574 25.1572C53.029 26.4403 54.5222 27.4202 57.9865 27.4202C61.7076 27.4202 63.5976 26.3703 63.5976 24.4339Z" fill="#B48AFF"/>
<path fill-rule="evenodd" clip-rule="evenodd" d="M39.7822 26.3471C40.1322 25.9388 40.3071 25.3205 40.3071 24.6906C40.3071 24.1541 40.1671 23.6408 39.8755 23.3025C39.5256 22.8476 38.9073 22.521 38.2541 22.4394C38.6974 22.3811 39.1173 22.1478 39.3622 21.8445C39.6655 21.4829 39.8055 20.9929 39.8055 20.398C39.8055 19.8031 39.6306 19.2783 39.234 18.8817C38.7907 18.4267 37.9858 18.1234 36.7261 18.1234H28.8174V27.2803H36.9476C38.2425 27.2803 39.2457 27.0002 39.7822 26.3471ZM36.5627 20.9463C36.5627 21.168 36.4927 21.3546 36.3761 21.4829C36.2128 21.6345 35.9095 21.6928 35.5129 21.6928H31.8735V20.1997H35.4313C35.8745 20.1997 36.1778 20.2581 36.3411 20.4097C36.4927 20.538 36.5627 20.7246 36.5627 20.9463ZM36.9127 24.959C36.7261 25.1339 36.3994 25.2039 35.8511 25.2039H31.8735V23.6759H35.8862C36.3994 23.6759 36.7027 23.7458 36.8776 23.8974C37.0177 24.0374 37.0759 24.2124 37.0759 24.4457C37.0759 24.6674 37.0293 24.8423 36.9127 24.959Z" fill="#B48AFF"/>
<path d="M51.2907 25.0056V27.2803H41.644V18.1234H51.2091V20.4097H44.7235V21.5878H51.0225V23.8158H44.7235V25.0056H51.2907Z" fill="#B48AFF"/>
<path d="M74.9484 20.4214V18.1234H64.019V20.4214H67.8801V27.2803H71.0754V20.4214H74.9484Z" fill="#B48AFF"/>
<path d="M74.6712 35.383H74.1571L74.1203 34.8879C73.9633 35.1385 73.631 35.4393 72.9296 35.4393C71.7443 35.4393 71.1934 34.7249 71.1934 32.9009C71.1934 31.4907 71.5441 30.3563 72.9913 30.3563C74.2458 30.3563 74.6279 31.1775 74.6463 32.0612H74.0196C74.0012 31.4845 73.7436 30.9518 73.0043 30.9518C72.1145 30.9518 71.8569 31.4845 71.8569 32.9199C71.8569 34.4178 72.1773 34.8879 73.0173 34.8879C73.6061 34.8879 73.9503 34.562 74.064 34.1734V33.2395H72.7975V32.6691H74.6647V34.1107C74.6647 34.5414 74.6691 35.0012 74.6701 35.2323L74.6712 35.3422V35.383Z" fill="#B48AFF"/>
<path fill-rule="evenodd" clip-rule="evenodd" d="M28.9351 34.1357H30.6901L31.0536 35.383H31.718L30.2638 30.4191H29.4554L27.9009 35.383H28.559L28.9351 34.1357ZM30.5334 33.5779H29.1043C29.1043 33.5779 29.7248 31.5723 29.7373 31.5285C29.7436 31.4971 29.844 31.0521 29.844 31.0521L29.9133 31.3812L29.9442 31.5285C29.9505 31.5597 30.5334 33.5779 30.5334 33.5779Z" fill="#B48AFF"/>
<path d="M36.4752 30.4191H37.0769L35.9049 35.383H35.159C35.159 35.383 34.3254 31.5222 34.3254 31.3592C34.3191 31.5222 33.4667 35.383 33.4667 35.383H32.7209L31.5488 30.4191H32.2257C32.2257 30.4191 33.1345 34.3488 33.1345 34.5056C33.1345 34.3488 33.9682 30.4191 33.9682 30.4191H34.714C34.714 30.4191 35.5476 34.3551 35.5476 34.5056C35.5476 34.3551 36.4752 30.4191 36.4752 30.4191Z" fill="#B48AFF"/>
<path fill-rule="evenodd" clip-rule="evenodd" d="M39.6509 34.1357H37.896L37.5199 35.383H36.8618L38.4162 30.4191H39.2248L40.6789 35.383H40.0145L39.6509 34.1357ZM38.0653 33.5779H39.4943C39.4943 33.5779 38.9114 31.5597 38.9051 31.5285L38.8577 31.3025L38.8048 31.0521C38.8048 31.0521 38.7046 31.4971 38.6983 31.5285C38.6857 31.5723 38.0653 33.5779 38.0653 33.5779Z" fill="#B48AFF"/>
<path fill-rule="evenodd" clip-rule="evenodd" d="M43.0948 30.4191C43.8594 30.4191 44.2731 30.7763 44.2731 31.8167C44.2731 32.7005 43.9409 32.995 43.5961 33.0953L44.5489 35.383H43.8594L42.9757 33.2207H41.7723V35.383H41.1455V30.4191H43.0948ZM43.0008 32.6566C43.4959 32.6566 43.615 32.3996 43.615 31.8355C43.615 31.1963 43.427 31.002 42.9694 31.002H41.7785V32.6566H43.0008Z" fill="#B48AFF"/>
<path fill-rule="evenodd" clip-rule="evenodd" d="M48.4457 32.8196C48.4457 33.9916 48.358 34.4679 48.1074 34.8252C47.8567 35.17 47.4618 35.383 46.8224 35.383H45.1177V30.4191H46.7786C47.4054 30.4191 47.8942 30.6071 48.1199 30.9456C48.3706 31.309 48.4457 31.7603 48.4457 32.8196ZM46.6909 34.7938C47.0732 34.7938 47.3928 34.6936 47.5558 34.4742C47.7313 34.2361 47.7814 33.7534 47.7814 32.8196C47.7814 32.0361 47.7375 31.6161 47.5558 31.3466C47.3866 31.1148 47.0606 31.0144 46.6783 31.0144H45.7507V34.7938H46.6909Z" fill="#B48AFF"/>
<path d="M55.0582 30.4191H55.6599L54.4879 35.383H53.742C53.742 35.383 52.9084 31.5222 52.9084 31.3592C52.9021 31.5222 52.0497 35.383 52.0497 35.383H51.3039L50.1318 30.4191H50.8087C50.8087 30.4191 51.7175 34.3488 51.7175 34.5056C51.7175 34.3488 52.5511 30.4191 52.5511 30.4191H53.297C53.297 30.4191 54.1306 34.3551 54.1306 34.5056C54.1306 34.3551 55.0582 30.4191 55.0582 30.4191Z" fill="#B48AFF"/>
<path d="M56.7685 30.4191V35.383H56.1167V30.4191H56.7685Z" fill="#B48AFF"/>
<path d="M60.8487 30.4191V35.383H60.1279L58.2789 31.5346V35.383H57.6709V30.4191H58.4294L60.2344 34.2109V30.4191H60.8487Z" fill="#B48AFF"/>
<path d="M64.9129 30.4191V35.383H64.192L62.3434 31.5346V35.383H61.7354V30.4191H62.4938L64.2992 34.2109V30.4191H64.9129Z" fill="#B48AFF"/>
<path d="M66.4505 30.4191V35.383H65.7988V30.4191H66.4505Z" fill="#B48AFF"/>
<path d="M70.5315 30.4191V35.383H69.8106L67.9618 31.5346V35.383H67.3535V30.4191H68.1123L69.9178 34.2109V30.4191H70.5315Z" fill="#B48AFF"/>
<path d="M35.9917 45.1666L35.2735 42.9561L34.5552 45.1666H32.231L34.1113 46.5328L33.3931 48.7434L35.2735 47.3771L37.1539 48.7434L36.4356 46.5328L38.316 45.1666H35.9917Z" fill="#B48AFF"/>
<path d="M44.298 45.1669L43.5651 42.9563L42.8322 45.1669H40.4604L42.3793 46.533L41.6464 48.7435L43.5651 47.3774L45.4839 48.7435L44.751 46.533L46.6697 45.1669H44.298Z" fill="#B48AFF"/>
<path d="M52.5246 45.1669L51.7916 42.9563L51.0587 45.1669H48.687L50.6057 46.533L49.8728 48.7435L51.7916 47.3774L53.7104 48.7435L52.9775 46.533L54.8963 45.1669H52.5246Z" fill="#B48AFF"/>
<path d="M60.7501 45.1669L60.0172 42.9563L59.2843 45.1669H56.9126L58.8313 46.533L58.0984 48.7435L60.0172 47.3774L61.936 48.7435L61.203 46.533L63.1219 45.1669H60.7501Z" fill="#B48AFF"/>
<path d="M69.0275 45.1669L68.3098 42.9563L67.5911 45.1669H65.2671L67.1473 46.533L66.4296 48.7435L68.3098 47.3774L70.19 48.7435L69.4713 46.533L71.3525 45.1669H69.0275Z" fill="#B48AFF"/>
<path d="M6.04829 18.0852C6.72416 19.1164 7.77001 20.4079 9.29494 20.3711C10.6816 20.4404 11.8797 19.494 12.8231 18.7042C13.8392 17.8535 14.7564 16.6094 15.1435 15.2645C13.7252 14.8519 12.3673 15.6163 11.3547 16.3373C10.2973 17.0904 9.48404 18.4685 9.30933 19.8836C9.29624 18.4659 8.91252 17.0017 8.29391 15.8222C7.72833 14.7439 6.94022 13.2863 5.53413 12.9949C4.98015 14.6728 5.15691 16.7257 6.04829 18.0852Z" fill="#B48AFF"/>
<path d="M9.74593 25.9247C8.33065 26.1619 6.95012 25.2947 6.05354 24.2748C4.89923 22.9615 4.21243 21.1999 4.35249 19.4363C5.80642 19.4732 6.90758 20.73 7.72146 21.6804C8.59801 22.7039 9.31621 24.0506 9.66074 25.4398C9.5092 24.0553 9.974 22.5604 10.8368 21.6366C11.6696 20.7449 12.8363 19.7731 14.2878 19.9291C14.2565 21.3329 13.5528 22.6704 12.8271 23.6721C12.1506 24.6055 11.1084 25.7602 9.74593 25.9247Z" fill="#B48AFF"/>
<path d="M7.13159 30.5895C8.43505 31.4381 10.0159 32.2781 11.6774 31.6424C13.0404 31.1601 13.907 29.7882 14.44 28.5289C15.0046 27.1945 15.3817 25.656 15.1206 24.1956C13.6228 24.3285 12.3809 25.4001 11.7212 26.7082C11.0316 28.0758 10.8993 29.7035 11.4291 31.1373C10.6464 29.6623 9.50169 28.4688 8.28914 27.366C7.1869 26.3636 5.59919 25.3075 4 25.5062C4.30427 27.4832 5.51075 29.5343 7.13159 30.5895Z" fill="#B48AFF"/>
<path d="M15.0351 36.9872C16.3178 36.2204 16.834 34.6069 17.045 33.2243C17.2724 31.7333 17.2627 30.0888 16.6434 28.6743C15.1553 29.09 14.1338 30.4294 13.7965 31.8964C13.4401 33.4463 13.7408 35.0982 14.6077 36.4179C13.4554 35.096 11.9232 34.0044 10.4549 33.239C9.03659 32.4997 7.29658 31.608 5.59326 32.1465C6.41461 34.1511 8.17162 36.0174 10.1189 36.7894C11.627 37.3871 13.4616 37.9783 15.0351 36.9872Z" fill="#B48AFF"/>
<path d="M21.116 37.506C21.3043 38.9452 21.2989 40.7706 20.1816 41.8784C18.7852 43.3076 16.6242 43.0318 14.9575 42.7174C12.7199 42.2949 10.2011 40.7688 8.85107 38.7367C10.4998 37.8289 12.5163 38.4096 14.1486 38.8797L14.2418 38.9065C16.0639 39.4307 18.0055 40.275 19.6294 41.4286C18.3335 40.2577 17.3893 38.539 17.3431 36.8067C17.3015 35.2573 17.974 33.5996 19.4213 32.8611C20.4316 34.1872 20.9047 35.8897 21.116 37.506Z" fill="#B48AFF"/>
<path d="M27.6008 45.9536C28.4236 44.3872 27.6083 42.5488 26.9587 41.19C26.1906 39.5837 25.1411 37.9466 23.6393 36.7709C22.1971 38.0137 22.3343 39.7921 22.763 41.3376C23.2729 43.1752 25.0404 44.7417 26.8707 45.6344C24.7509 44.8439 22.4359 44.3694 20.2334 44.2294L20.0103 44.215C18.2408 44.0997 15.9373 43.9497 14.5273 45.2446C16.6592 47.0569 19.6873 48.1025 22.3561 48.0482C24.1447 48.0118 26.5985 47.8002 27.6008 45.9536Z" fill="#B48AFF"/>
<path d="M92.7312 14.3329C92.2149 12.9438 91.0848 11.7325 89.8552 11.1676C88.7132 10.6437 87.1967 10.097 85.8643 10.7683C86.5895 12.0417 87.7834 13.1132 89.0033 13.7871C90.0998 14.393 91.4886 15.1271 92.8633 14.8116C94.3614 14.5821 95.0855 13.0908 95.4882 11.9625C96.0456 10.4035 95.6646 8.32146 94.7131 6.79187C93.4012 7.33861 93.0007 8.96074 92.7269 10.1084C92.4141 11.4148 92.4054 12.9398 92.7312 14.3329Z" fill="#B48AFF"/>
<path d="M91.6541 16.3403C92.7106 17.0936 93.5213 18.471 93.6956 19.8851C93.7108 18.4682 94.0961 17.0054 94.7153 15.8271C95.2814 14.7491 96.0715 13.2921 97.4776 13.0017C98.0297 14.6801 97.8511 16.733 96.958 18.0917C96.2826 19.121 95.237 20.4099 93.7151 20.3754C92.3263 20.4463 91.127 19.4976 90.1831 18.7061C89.1678 17.8546 88.252 16.6099 87.8667 15.2648C89.2847 14.853 90.6421 15.6185 91.6541 16.3403Z" fill="#B48AFF"/>
<path d="M93.3387 25.449C93.4935 24.0634 93.0302 22.5653 92.1664 21.6397C91.3351 20.7474 90.1693 19.7747 88.7178 19.9296C88.747 21.3334 89.4495 22.6715 90.1747 23.6737C90.8502 24.6073 91.8904 25.762 93.2521 25.9283C94.6679 26.1681 96.0502 25.3014 96.9486 24.2815C98.1035 22.9693 98.792 21.2082 98.6545 19.4443C97.1997 19.4803 96.0978 20.7361 95.2827 21.6858C94.4038 22.71 93.684 24.0582 93.3387 25.449Z" fill="#B48AFF"/>
<path d="M91.2778 26.7108C91.9662 28.0791 92.0972 29.7072 91.5657 31.1406C92.3494 29.6657 93.4957 28.473 94.7091 27.371C95.8121 26.3693 97.4011 25.3147 98.9999 25.5144C98.6946 27.4914 97.4855 29.5416 95.864 30.5954C94.5608 31.4419 92.9815 32.2801 91.3222 31.647C89.9572 31.1657 89.0902 29.7909 88.5576 28.5294C87.9937 27.1947 87.6181 25.6559 87.8811 24.1956C89.3781 24.3297 90.6197 25.4023 91.2778 26.7108Z" fill="#B48AFF"/>
<path d="M88.3846 36.4153C89.2506 35.0969 89.5525 33.4466 89.1986 31.8975C88.863 30.4301 87.8423 29.09 86.354 28.6732C85.7337 30.0871 85.7229 31.7314 85.948 33.2228C86.158 34.6027 86.6711 36.2129 87.9462 36.9825C89.5212 37.9814 91.3602 37.3906 92.8702 36.7931C94.8186 36.0225 96.5775 34.1575 97.4002 32.1533C95.6975 31.6138 93.957 32.5042 92.5379 33.2424C91.0701 34.0063 89.5374 35.0955 88.3846 36.4153Z" fill="#B48AFF"/>
<path d="M81.8725 37.5019C81.6831 38.9408 81.6864 40.7661 82.8034 41.8748C84.1976 43.3051 86.3592 43.0309 88.0262 42.7175C90.2646 42.2967 92.7845 40.7722 94.1365 38.7414C92.489 37.8325 90.4714 38.4115 88.8391 38.8803L88.7449 38.9071C86.9232 39.4297 84.9813 40.2723 83.3565 41.4242C84.6533 40.2542 85.5983 38.5369 85.6459 36.8052C85.6892 35.2559 85.0181 33.5978 83.572 32.858C82.5599 34.1834 82.0858 35.8857 81.8725 37.5019Z" fill="#B48AFF"/>
<path d="M80.622 48.0429C78.8339 48.0051 76.38 47.7917 75.3798 45.9442L75.3657 45.9189C74.5669 44.3573 75.3787 42.5321 76.026 41.1813C76.7956 39.5755 77.8467 37.9392 79.3491 36.7648C80.7909 38.0086 80.6513 39.7868 80.2215 41.3319C79.7095 43.1692 77.9408 44.7346 76.1094 45.6258C78.2299 44.8369 80.5452 44.3642 82.7479 44.2257L82.972 44.2114C84.7418 44.0975 87.0452 43.9494 88.4534 45.2451C86.32 47.0556 83.2913 48.0991 80.622 48.0429Z" fill="#B48AFF"/>
</svg>
