<svg width="56" height="56" viewBox="0 0 56 56" fill="none" xmlns="http://www.w3.org/2000/svg">
<rect x="3" y="3" width="50" height="50" rx="10" fill="url(#paint0_linear_403_139)"/>
<rect x="1.5" y="1.5" width="53" height="53" rx="11.5" stroke="#EAE9FC" stroke-opacity="0.97" stroke-width="3"/>
<path d="M38.2865 13L43 22.5238H37.7344L34.1302 13H38.2865ZM31.6198 13L35.224 22.5238H20.776L24.3802 13H31.6198ZM17.7135 13H21.8698L18.2656 22.5238H13L17.7135 13ZM13 24.4286H18.2448L24.651 39.4107C24.7292 39.5952 24.5104 39.7619 24.3906 39.6071L13 24.4286ZM20.7187 24.4286H35.2812L28.1458 43.3691C28.0937 43.5119 27.9115 43.5119 27.8594 43.3691L20.7187 24.4286ZM31.349 39.4107L37.7552 24.4286H43L31.6094 39.6012C31.4896 39.7619 31.2708 39.5952 31.349 39.4107Z" fill="url(#paint1_linear_403_139)"/>
<defs>
<linearGradient id="paint0_linear_403_139" x1="28" y1="3" x2="28" y2="53" gradientUnits="userSpaceOnUse">
<stop stop-color="#B48AFF"/>
<stop offset="1" stop-color="#9355F1"/>
</linearGradient>
<linearGradient id="paint1_linear_403_139" x1="28" y1="13" x2="28" y2="43.4762" gradientUnits="userSpaceOnUse">
<stop stop-color="#FFD571"/>
<stop offset="1" stop-color="#FFB910"/>
</linearGradient>
</defs>
</svg>
