<svg width="56" height="56" viewBox="0 0 56 56" fill="none" xmlns="http://www.w3.org/2000/svg">
<rect x="3" y="3" width="50" height="50" rx="25" fill="url(#paint0_linear_488_27)"/>
<rect x="1.5" y="1.5" width="53" height="53" rx="26.5" stroke="#EAE9FC" stroke-opacity="0.97" stroke-width="3"/>
<path d="M38.2222 16C38.9589 16 39.6655 16.2927 40.1864 16.8136C40.7073 17.3345 41 18.0411 41 18.7778V38.2222C41 38.9589 40.7073 39.6655 40.1864 40.1864C39.6655 40.7073 38.9589 41 38.2222 41H18.7778C18.0411 41 17.3345 40.7073 16.8136 40.1864C16.2927 39.6655 16 38.9589 16 38.2222V18.7778C16 18.0411 16.2927 17.3345 16.8136 16.8136C17.3345 16.2927 18.0411 16 18.7778 16H38.2222ZM37.5278 37.5278V30.1667C37.5278 28.9658 37.0507 27.8142 36.2016 26.965C35.3525 26.1159 34.2008 25.6389 33 25.6389C31.8194 25.6389 30.4444 26.3611 29.7778 27.4444V25.9028H25.9028V37.5278H29.7778V30.6806C29.7778 29.6111 30.6389 28.7361 31.7083 28.7361C32.224 28.7361 32.7186 28.941 33.0833 29.3056C33.4479 29.6703 33.6528 30.1649 33.6528 30.6806V37.5278H37.5278ZM21.3889 23.7222C22.0077 23.7222 22.6012 23.4764 23.0388 23.0388C23.4764 22.6012 23.7222 22.0077 23.7222 21.3889C23.7222 20.0972 22.6806 19.0417 21.3889 19.0417C20.7664 19.0417 20.1693 19.289 19.7292 19.7292C19.289 20.1693 19.0417 20.7664 19.0417 21.3889C19.0417 22.6806 20.0972 23.7222 21.3889 23.7222ZM23.3194 37.5278V25.9028H19.4722V37.5278H23.3194Z" fill="url(#paint1_linear_488_27)"/>
<defs>
<linearGradient id="paint0_linear_488_27" x1="28" y1="3" x2="28" y2="53" gradientUnits="userSpaceOnUse">
<stop stop-color="#B48AFF"/>
<stop offset="1" stop-color="#9355F1"/>
</linearGradient>
<linearGradient id="paint1_linear_488_27" x1="28.5" y1="16" x2="28.5" y2="41" gradientUnits="userSpaceOnUse">
<stop stop-color="#FFD571"/>
<stop offset="1" stop-color="#FFB910"/>
</linearGradient>
</defs>
</svg>
