<svg width="56" height="56" viewBox="0 0 56 56" fill="none" xmlns="http://www.w3.org/2000/svg">
<rect x="3" y="3" width="50" height="50" rx="10" fill="url(#paint0_linear_403_145)"/>
<rect x="1.5" y="1.5" width="53" height="53" rx="11.5" stroke="#EAE9FC" stroke-opacity="0.97" stroke-width="3"/>
<path fill-rule="evenodd" clip-rule="evenodd" d="M41.2229 16.5605C42.4849 18.0773 42.8738 19.5498 42.9897 21.3628H42.9949C43.148 26.3282 39.8402 30.382 38.9408 31.4843C38.8639 31.5785 38.8046 31.6511 38.7666 31.701C36.1093 34.8169 33.2133 37.7596 30.2716 40.4724C29.7413 40.9381 29.2817 41.3257 28.8203 41.7099C28.6849 41.821 28.5504 41.9326 28.4159 42.044C28.2772 42.1591 28.1387 42.274 27.9995 42.388C27.8639 42.2773 27.7288 42.1656 27.5934 42.0537C27.4547 41.939 27.3158 41.8241 27.1759 41.7099C26.7163 41.3257 26.2567 40.9381 25.7246 40.4724C22.7843 37.7596 19.8887 34.815 17.2342 31.701C17.1962 31.6512 17.137 31.5785 17.0601 31.4843C16.1609 30.3822 12.8532 26.3283 13.0051 21.3628C13.1209 19.5498 13.5094 18.0773 14.7733 16.5605C17.3001 13.5279 23.1111 13.0236 25.7123 15.9427C26.1658 16.3717 26.5948 16.8892 27.0261 17.5071L27.9995 18.9052L28.9724 17.5071C29.4023 16.8892 29.8303 16.3722 30.2838 15.9427C32.8832 13.0236 38.6946 13.5284 41.2229 16.5605ZM41.1494 19.0313C41.2876 19.475 41.3601 19.9365 41.3646 20.4012H41.3651C41.3801 20.7775 41.3522 21.1543 41.2818 21.5243C41.2083 22.128 40.9008 22.8066 40.3352 22.9205C40.1078 21.5314 39.6053 20.1309 38.4422 19.2301C38.0966 18.9546 37.7184 18.7201 37.3144 18.5223C35.6931 17.7345 33.6645 17.5499 31.8308 17.7547C31.3246 17.7797 30.9968 17.5838 31.1527 17.1765C31.6104 16.2271 32.6059 15.8532 33.6 15.614C36.1485 15.0932 39.199 15.8344 40.5989 17.8918C40.838 18.2422 41.0235 18.6263 41.1494 19.0313Z" fill="white"/>
<defs>
<linearGradient id="paint0_linear_403_145" x1="28" y1="3" x2="28" y2="53" gradientUnits="userSpaceOnUse">
<stop stop-color="#B48AFF"/>
<stop offset="1" stop-color="#9355F1"/>
</linearGradient>
</defs>
</svg>
