<svg width="56" height="56" viewBox="0 0 56 56" fill="none" xmlns="http://www.w3.org/2000/svg">
<rect x="3" y="3" width="50" height="50" rx="10" fill="url(#paint0_linear_403_69)"/>
<rect x="1.5" y="1.5" width="53" height="53" rx="11.5" stroke="#EAE9FC" stroke-opacity="0.97" stroke-width="3"/>
<path d="M13 43.6667H43" stroke="url(#paint1_linear_403_69)" stroke-width="4" stroke-linecap="round"/>
<path d="M13 38.6667H43" stroke="url(#paint2_linear_403_69)" stroke-width="4" stroke-linecap="round"/>
<path fill-rule="evenodd" clip-rule="evenodd" d="M28 17C21.0964 17 15.5 22.5964 15.5 29.5V38.6667H40.5V29.5C40.5 22.5964 34.9036 17 28 17ZM24.1667 29.5C24.1667 28.3954 23.2712 27.5 22.1667 27.5C21.0621 27.5 20.1667 28.3954 20.1667 29.5V32.8333C20.1667 33.9379 21.0621 34.8333 22.1667 34.8333C23.2712 34.8333 24.1667 33.9379 24.1667 32.8333V29.5Z" fill="url(#paint3_linear_403_69)"/>
<path d="M15.5 38.6667H13.5C13.5 39.7712 14.3954 40.6667 15.5 40.6667V38.6667ZM40.5 38.6667V40.6667C41.6046 40.6667 42.5 39.7712 42.5 38.6667H40.5ZM17.5 29.5C17.5 23.701 22.201 19 28 19V15C19.9918 15 13.5 21.4918 13.5 29.5H17.5ZM17.5 38.6667V29.5H13.5V38.6667H17.5ZM40.5 36.6667H15.5V40.6667H40.5V36.6667ZM38.5 29.5V38.6667H42.5V29.5H38.5ZM28 19C33.799 19 38.5 23.701 38.5 29.5H42.5C42.5 21.4918 36.0082 15 28 15V19ZM22.1667 29.5H26.1667C26.1667 27.2909 24.3758 25.5 22.1667 25.5V29.5ZM22.1667 29.5V25.5C19.9575 25.5 18.1667 27.2909 18.1667 29.5H22.1667ZM22.1667 32.8333V29.5H18.1667V32.8333H22.1667ZM22.1667 32.8333V32.8333H18.1667C18.1667 35.0425 19.9575 36.8333 22.1667 36.8333V32.8333ZM22.1667 32.8333V32.8333V36.8333C24.3758 36.8333 26.1667 35.0425 26.1667 32.8333H22.1667ZM22.1667 29.5V32.8333H26.1667V29.5H22.1667Z" fill="url(#paint4_linear_403_69)"/>
<path d="M31.3334 17V15.3333C31.3334 13.4924 29.841 12 28.0001 12C26.1592 12 24.6667 13.4924 24.6667 15.3333V17" stroke="url(#paint5_linear_403_69)" stroke-width="4"/>
<defs>
<linearGradient id="paint0_linear_403_69" x1="28" y1="3" x2="28" y2="53" gradientUnits="userSpaceOnUse">
<stop stop-color="#B48AFF"/>
<stop offset="1" stop-color="#9355F1"/>
</linearGradient>
<linearGradient id="paint1_linear_403_69" x1="28" y1="43.6667" x2="28" y2="44.6667" gradientUnits="userSpaceOnUse">
<stop stop-color="#FFD571"/>
<stop offset="1" stop-color="#FFB910"/>
</linearGradient>
<linearGradient id="paint2_linear_403_69" x1="28" y1="38.6667" x2="28" y2="39.6667" gradientUnits="userSpaceOnUse">
<stop stop-color="#FFD571"/>
<stop offset="1" stop-color="#FFB910"/>
</linearGradient>
<linearGradient id="paint3_linear_403_69" x1="28" y1="17" x2="28" y2="38.6667" gradientUnits="userSpaceOnUse">
<stop stop-color="#FFD571"/>
<stop offset="1" stop-color="#FFB910"/>
</linearGradient>
<linearGradient id="paint4_linear_403_69" x1="28" y1="17" x2="28" y2="38.6667" gradientUnits="userSpaceOnUse">
<stop stop-color="#FFD571"/>
<stop offset="1" stop-color="#FFB910"/>
</linearGradient>
<linearGradient id="paint5_linear_403_69" x1="28.0001" y1="12" x2="28.0001" y2="17" gradientUnits="userSpaceOnUse">
<stop stop-color="#FFD571"/>
<stop offset="1" stop-color="#FFB910"/>
</linearGradient>
</defs>
</svg>
