<svg width="56" height="56" viewBox="0 0 56 56" fill="none" xmlns="http://www.w3.org/2000/svg">
<rect x="3" y="3" width="50" height="50" rx="10" fill="url(#paint0_linear_403_182)"/>
<rect x="1.5" y="1.5" width="53" height="53" rx="11.5" stroke="#EAE9FC" stroke-opacity="0.97" stroke-width="3"/>
<path d="M40 13H16C14.35 13 13 14.35 13 16V43L19 37H40C41.65 37 43 35.65 43 34V16C43 14.35 41.65 13 40 13ZM30.355 27.355L28 32.5L25.645 27.355L20.5 25L25.645 22.645L28 17.5L30.355 22.645L35.5 25L30.355 27.355Z" fill="url(#paint1_linear_403_182)"/>
<defs>
<linearGradient id="paint0_linear_403_182" x1="28" y1="3" x2="28" y2="53" gradientUnits="userSpaceOnUse">
<stop stop-color="#B48AFF"/>
<stop offset="1" stop-color="#9355F1"/>
</linearGradient>
<linearGradient id="paint1_linear_403_182" x1="28" y1="13" x2="28" y2="43" gradientUnits="userSpaceOnUse">
<stop stop-color="#FFD571"/>
<stop offset="1" stop-color="#FFB910"/>
</linearGradient>
</defs>
</svg>
